<mxfile host="app.diagrams.net" modified="2024-04-25T07:47:01.954Z" agent="Mozilla/5.0 (Windows NT 10.0; Win64; x64; rv:109.0) Gecko/20100101 Firefox/115.0" etag="BoedmhbRARHOUd-uKs_O" version="24.0.2" type="device">
  <diagram name="Страница — 1" id="BrHe-ujsLSa5PrL2c1BS">
    <mxGraphModel dx="26954" dy="33829" grid="1" gridSize="10" guides="1" tooltips="1" connect="1" arrows="1" fold="1" page="1" pageScale="1" pageWidth="827" pageHeight="1169" background="none" math="0" shadow="0">
      <root>
        <mxCell id="0" />
        <mxCell id="1" parent="0" />
        <mxCell id="sV9AE89kQXJ4sSSlhw6v-18" value="" style="whiteSpace=wrap;html=1;aspect=fixed;movable=0;resizable=0;rotatable=0;deletable=0;editable=0;locked=1;connectable=0;" parent="1" vertex="1">
          <mxGeometry x="3610" y="2420" width="3510" height="3510" as="geometry" />
        </mxCell>
        <mxCell id="sV9AE89kQXJ4sSSlhw6v-1" value="" style="whiteSpace=wrap;html=1;aspect=fixed;movable=0;resizable=0;rotatable=0;deletable=0;editable=0;locked=1;connectable=0;" parent="1" vertex="1">
          <mxGeometry x="-6616" y="-3590" width="3590" height="3590" as="geometry" />
        </mxCell>
        <mxCell id="EBMEOw4G6YECZA9VFPGC-11" style="edgeStyle=orthogonalEdgeStyle;rounded=0;orthogonalLoop=1;jettySize=auto;html=1;entryX=0;entryY=0.5;entryDx=0;entryDy=0;" parent="1" source="EBMEOw4G6YECZA9VFPGC-1" edge="1">
          <mxGeometry relative="1" as="geometry">
            <mxPoint x="4934.060000000005" y="3153" as="targetPoint" />
          </mxGeometry>
        </mxCell>
        <mxCell id="EBMEOw4G6YECZA9VFPGC-1" value="&lt;font style=&quot;font-size: 20px;&quot;&gt;User db&lt;br&gt;&lt;/font&gt;" style="rounded=0;whiteSpace=wrap;html=1;" parent="1" vertex="1">
          <mxGeometry x="4534.06" y="3033" width="240" height="80" as="geometry" />
        </mxCell>
        <mxCell id="EBMEOw4G6YECZA9VFPGC-13" style="edgeStyle=orthogonalEdgeStyle;rounded=0;orthogonalLoop=1;jettySize=auto;html=1;exitX=0.5;exitY=1;exitDx=0;exitDy=0;entryX=0;entryY=0.5;entryDx=0;entryDy=0;" parent="1" source="EBMEOw4G6YECZA9VFPGC-2" target="EBMEOw4G6YECZA9VFPGC-7" edge="1">
          <mxGeometry relative="1" as="geometry" />
        </mxCell>
        <mxCell id="EBMEOw4G6YECZA9VFPGC-2" value="ID" style="rounded=0;whiteSpace=wrap;html=1;" parent="1" vertex="1">
          <mxGeometry x="4534.06" y="3113" width="40" height="40" as="geometry" />
        </mxCell>
        <mxCell id="EBMEOw4G6YECZA9VFPGC-3" value="nick" style="rounded=0;whiteSpace=wrap;html=1;" parent="1" vertex="1">
          <mxGeometry x="4574.06" y="3113" width="40" height="40" as="geometry" />
        </mxCell>
        <mxCell id="EBMEOw4G6YECZA9VFPGC-4" value="login" style="rounded=0;whiteSpace=wrap;html=1;" parent="1" vertex="1">
          <mxGeometry x="4614.06" y="3113" width="40" height="40" as="geometry" />
        </mxCell>
        <mxCell id="EBMEOw4G6YECZA9VFPGC-5" value="password" style="rounded=0;whiteSpace=wrap;html=1;" parent="1" vertex="1">
          <mxGeometry x="4654.06" y="3113" width="120" height="40" as="geometry" />
        </mxCell>
        <mxCell id="EBMEOw4G6YECZA9VFPGC-25" style="edgeStyle=orthogonalEdgeStyle;rounded=0;orthogonalLoop=1;jettySize=auto;html=1;exitX=0.5;exitY=0;exitDx=0;exitDy=0;" parent="1" target="EBMEOw4G6YECZA9VFPGC-1" edge="1">
          <mxGeometry relative="1" as="geometry">
            <mxPoint x="5054.060000000005" y="3113" as="sourcePoint" />
          </mxGeometry>
        </mxCell>
        <mxCell id="EBMEOw4G6YECZA9VFPGC-6" value="&lt;font style=&quot;font-size: 20px;&quot;&gt;JWT.Token&lt;/font&gt;" style="rounded=0;whiteSpace=wrap;html=1;" parent="1" vertex="1">
          <mxGeometry x="4334.06" y="3240" width="240" height="80" as="geometry" />
        </mxCell>
        <mxCell id="EBMEOw4G6YECZA9VFPGC-7" value="ID" style="rounded=0;whiteSpace=wrap;html=1;" parent="1" vertex="1">
          <mxGeometry x="4934.06" y="3193" width="40" height="40" as="geometry" />
        </mxCell>
        <mxCell id="EBMEOw4G6YECZA9VFPGC-10" value="ref.Token" style="rounded=0;whiteSpace=wrap;html=1;" parent="1" vertex="1">
          <mxGeometry x="4374.06" y="3320" width="200" height="40" as="geometry" />
        </mxCell>
        <mxCell id="EBMEOw4G6YECZA9VFPGC-19" value="User" style="shape=umlActor;verticalLabelPosition=bottom;verticalAlign=top;html=1;outlineConnect=0;fillColor=#FEFFFC;strokeWidth=8;fontSize=200;" parent="1" vertex="1">
          <mxGeometry x="-5710" y="-27660" width="1543" height="3086" as="geometry" />
        </mxCell>
        <mxCell id="EBMEOw4G6YECZA9VFPGC-37" style="edgeStyle=orthogonalEdgeStyle;rounded=0;orthogonalLoop=1;jettySize=auto;html=1;entryX=0.5;entryY=0;entryDx=0;entryDy=0;" parent="1" source="EBMEOw4G6YECZA9VFPGC-33" target="EBMEOw4G6YECZA9VFPGC-1" edge="1">
          <mxGeometry relative="1" as="geometry" />
        </mxCell>
        <mxCell id="EBMEOw4G6YECZA9VFPGC-33" value="Server- /api/content/getchats" style="rounded=0;whiteSpace=wrap;html=1;" parent="1" vertex="1">
          <mxGeometry x="4574.06" y="2923" width="160" height="60" as="geometry" />
        </mxCell>
        <mxCell id="EBMEOw4G6YECZA9VFPGC-65" style="edgeStyle=orthogonalEdgeStyle;rounded=0;orthogonalLoop=1;jettySize=auto;html=1;exitX=1;exitY=0.5;exitDx=0;exitDy=0;entryX=0;entryY=0.5;entryDx=0;entryDy=0;" parent="1" source="EBMEOw4G6YECZA9VFPGC-38" target="EBMEOw4G6YECZA9VFPGC-1" edge="1">
          <mxGeometry relative="1" as="geometry">
            <mxPoint x="4214.06" y="3423" as="targetPoint" />
            <Array as="points">
              <mxPoint x="5074.06" y="3613" />
              <mxPoint x="5074.06" y="3753" />
              <mxPoint x="4210.06" y="3753" />
              <mxPoint x="4210.06" y="3073" />
            </Array>
          </mxGeometry>
        </mxCell>
        <mxCell id="EBMEOw4G6YECZA9VFPGC-38" value="&lt;font style=&quot;font-size: 20px;&quot;&gt;Chats&lt;/font&gt;" style="rounded=0;whiteSpace=wrap;html=1;" parent="1" vertex="1">
          <mxGeometry x="4814.06" y="3593" width="240" height="40" as="geometry" />
        </mxCell>
        <mxCell id="EBMEOw4G6YECZA9VFPGC-39" value="CHATID" style="rounded=0;whiteSpace=wrap;html=1;" parent="1" vertex="1">
          <mxGeometry x="4814.06" y="3633" width="70" height="40" as="geometry" />
        </mxCell>
        <mxCell id="EBMEOw4G6YECZA9VFPGC-40" value="ChatName" style="rounded=0;whiteSpace=wrap;html=1;" parent="1" vertex="1">
          <mxGeometry x="4884.06" y="3633" width="170" height="40" as="geometry" />
        </mxCell>
        <mxCell id="EBMEOw4G6YECZA9VFPGC-41" value="&lt;font style=&quot;font-size: 20px;&quot;&gt;UserChat&lt;/font&gt;" style="rounded=0;whiteSpace=wrap;html=1;" parent="1" vertex="1">
          <mxGeometry x="4574.06" y="3358" width="240" height="40" as="geometry" />
        </mxCell>
        <mxCell id="EBMEOw4G6YECZA9VFPGC-42" value="&lt;div&gt;id&lt;/div&gt;" style="rounded=0;whiteSpace=wrap;html=1;" parent="1" vertex="1">
          <mxGeometry x="4574.06" y="3398" width="70" height="40" as="geometry" />
        </mxCell>
        <mxCell id="EBMEOw4G6YECZA9VFPGC-43" value="&lt;div&gt;userId&lt;/div&gt;" style="rounded=0;whiteSpace=wrap;html=1;" parent="1" vertex="1">
          <mxGeometry x="4644.06" y="3398" width="80" height="40" as="geometry" />
        </mxCell>
        <mxCell id="EBMEOw4G6YECZA9VFPGC-63" style="edgeStyle=orthogonalEdgeStyle;rounded=0;orthogonalLoop=1;jettySize=auto;html=1;exitX=0.5;exitY=1;exitDx=0;exitDy=0;entryX=0.5;entryY=0;entryDx=0;entryDy=0;" parent="1" source="EBMEOw4G6YECZA9VFPGC-44" target="EBMEOw4G6YECZA9VFPGC-59" edge="1">
          <mxGeometry relative="1" as="geometry" />
        </mxCell>
        <mxCell id="EBMEOw4G6YECZA9VFPGC-64" style="edgeStyle=orthogonalEdgeStyle;rounded=0;orthogonalLoop=1;jettySize=auto;html=1;exitX=0.5;exitY=1;exitDx=0;exitDy=0;entryX=0.5;entryY=0;entryDx=0;entryDy=0;" parent="1" source="EBMEOw4G6YECZA9VFPGC-44" target="EBMEOw4G6YECZA9VFPGC-53" edge="1">
          <mxGeometry relative="1" as="geometry" />
        </mxCell>
        <mxCell id="EBMEOw4G6YECZA9VFPGC-44" value="&lt;div&gt;ChatId&lt;/div&gt;" style="rounded=0;whiteSpace=wrap;html=1;" parent="1" vertex="1">
          <mxGeometry x="4724.06" y="3398" width="90" height="40" as="geometry" />
        </mxCell>
        <mxCell id="EBMEOw4G6YECZA9VFPGC-66" style="edgeStyle=orthogonalEdgeStyle;rounded=0;orthogonalLoop=1;jettySize=auto;html=1;exitX=1;exitY=0.5;exitDx=0;exitDy=0;" parent="1" source="EBMEOw4G6YECZA9VFPGC-45" edge="1">
          <mxGeometry relative="1" as="geometry">
            <mxPoint x="4644.06" y="3753" as="targetPoint" />
          </mxGeometry>
        </mxCell>
        <mxCell id="EBMEOw4G6YECZA9VFPGC-45" value="&lt;font style=&quot;font-size: 20px;&quot;&gt;messages&lt;/font&gt;" style="rounded=0;whiteSpace=wrap;html=1;" parent="1" vertex="1">
          <mxGeometry x="4374.06" y="3593" width="240" height="40" as="geometry" />
        </mxCell>
        <mxCell id="EBMEOw4G6YECZA9VFPGC-46" value="ID" style="rounded=0;whiteSpace=wrap;html=1;" parent="1" vertex="1">
          <mxGeometry x="4374.06" y="3633" width="40" height="40" as="geometry" />
        </mxCell>
        <mxCell id="EBMEOw4G6YECZA9VFPGC-47" value="&lt;div&gt;userId&lt;/div&gt;" style="rounded=0;whiteSpace=wrap;html=1;" parent="1" vertex="1">
          <mxGeometry x="4454.06" y="3633" width="40" height="40" as="geometry" />
        </mxCell>
        <mxCell id="EBMEOw4G6YECZA9VFPGC-48" value="&lt;div&gt;ChatId&lt;/div&gt;" style="rounded=0;whiteSpace=wrap;html=1;" parent="1" vertex="1">
          <mxGeometry x="4414.06" y="3633" width="40" height="40" as="geometry" />
        </mxCell>
        <mxCell id="EBMEOw4G6YECZA9VFPGC-49" value="txt" style="rounded=0;whiteSpace=wrap;html=1;" parent="1" vertex="1">
          <mxGeometry x="4494.06" y="3633" width="40" height="40" as="geometry" />
        </mxCell>
        <mxCell id="EBMEOw4G6YECZA9VFPGC-50" value="date" style="rounded=0;whiteSpace=wrap;html=1;" parent="1" vertex="1">
          <mxGeometry x="4534.06" y="3633" width="80" height="40" as="geometry" />
        </mxCell>
        <mxCell id="EBMEOw4G6YECZA9VFPGC-51" value="ID" style="rounded=0;whiteSpace=wrap;html=1;" parent="1" vertex="1">
          <mxGeometry x="4374.06" y="3553" width="40" height="40" as="geometry" />
        </mxCell>
        <mxCell id="EBMEOw4G6YECZA9VFPGC-52" value="&lt;div&gt;userId&lt;/div&gt;" style="rounded=0;whiteSpace=wrap;html=1;" parent="1" vertex="1">
          <mxGeometry x="4454.06" y="3553" width="40" height="40" as="geometry" />
        </mxCell>
        <mxCell id="EBMEOw4G6YECZA9VFPGC-53" value="&lt;div&gt;ChatId&lt;/div&gt;" style="rounded=0;whiteSpace=wrap;html=1;" parent="1" vertex="1">
          <mxGeometry x="4414.06" y="3553" width="40" height="40" as="geometry" />
        </mxCell>
        <mxCell id="EBMEOw4G6YECZA9VFPGC-54" value="txt" style="rounded=0;whiteSpace=wrap;html=1;" parent="1" vertex="1">
          <mxGeometry x="4494.06" y="3553" width="40" height="40" as="geometry" />
        </mxCell>
        <mxCell id="EBMEOw4G6YECZA9VFPGC-55" value="date" style="rounded=0;whiteSpace=wrap;html=1;" parent="1" vertex="1">
          <mxGeometry x="4534.06" y="3553" width="80" height="40" as="geometry" />
        </mxCell>
        <mxCell id="EBMEOw4G6YECZA9VFPGC-56" value="&lt;div&gt;id&lt;/div&gt;" style="rounded=0;whiteSpace=wrap;html=1;" parent="1" vertex="1">
          <mxGeometry x="4574.06" y="3318" width="70" height="40" as="geometry" />
        </mxCell>
        <mxCell id="EBMEOw4G6YECZA9VFPGC-57" value="&lt;div&gt;userId&lt;/div&gt;" style="rounded=0;whiteSpace=wrap;html=1;" parent="1" vertex="1">
          <mxGeometry x="4644.06" y="3318" width="80" height="40" as="geometry" />
        </mxCell>
        <mxCell id="EBMEOw4G6YECZA9VFPGC-58" value="&lt;div&gt;ChatId&lt;/div&gt;" style="rounded=0;whiteSpace=wrap;html=1;" parent="1" vertex="1">
          <mxGeometry x="4724.06" y="3318" width="90" height="40" as="geometry" />
        </mxCell>
        <mxCell id="EBMEOw4G6YECZA9VFPGC-59" value="CHATID" style="rounded=0;whiteSpace=wrap;html=1;" parent="1" vertex="1">
          <mxGeometry x="4814.06" y="3553" width="70" height="40" as="geometry" />
        </mxCell>
        <mxCell id="EBMEOw4G6YECZA9VFPGC-60" value="ChatName" style="rounded=0;whiteSpace=wrap;html=1;" parent="1" vertex="1">
          <mxGeometry x="4884.06" y="3553" width="170" height="40" as="geometry" />
        </mxCell>
        <mxCell id="EBMEOw4G6YECZA9VFPGC-61" style="edgeStyle=orthogonalEdgeStyle;rounded=0;orthogonalLoop=1;jettySize=auto;html=1;exitX=0.5;exitY=1;exitDx=0;exitDy=0;entryX=0.434;entryY=-0.039;entryDx=0;entryDy=0;entryPerimeter=0;" parent="1" source="EBMEOw4G6YECZA9VFPGC-2" target="EBMEOw4G6YECZA9VFPGC-57" edge="1">
          <mxGeometry relative="1" as="geometry">
            <Array as="points">
              <mxPoint x="4554.06" y="3213" />
              <mxPoint x="4679.06" y="3213" />
            </Array>
          </mxGeometry>
        </mxCell>
        <mxCell id="sV9AE89kQXJ4sSSlhw6v-2" value="&lt;font style=&quot;font-size: 200px;&quot;&gt;Database&lt;/font&gt;" style="text;html=1;align=center;verticalAlign=middle;whiteSpace=wrap;rounded=0;movable=0;resizable=0;rotatable=0;deletable=0;editable=0;locked=1;connectable=0;" parent="1" vertex="1">
          <mxGeometry x="-6519" y="-3570" width="820" height="187" as="geometry" />
        </mxCell>
        <mxCell id="sV9AE89kQXJ4sSSlhw6v-4" value="" style="whiteSpace=wrap;html=1;aspect=fixed;" parent="1" vertex="1">
          <mxGeometry x="-6616" y="-11690" width="3510" height="3510" as="geometry" />
        </mxCell>
        <mxCell id="sV9AE89kQXJ4sSSlhw6v-5" value="&lt;font style=&quot;font-size: 200px;&quot;&gt;Server&lt;/font&gt;" style="text;html=1;align=center;verticalAlign=middle;whiteSpace=wrap;rounded=0;" parent="1" vertex="1">
          <mxGeometry x="-6616" y="-11690" width="600" height="200" as="geometry" />
        </mxCell>
        <mxCell id="sV9AE89kQXJ4sSSlhw6v-6" value="" style="whiteSpace=wrap;html=1;aspect=fixed;" parent="1" vertex="1">
          <mxGeometry x="5600" y="-16680" width="80" height="80" as="geometry" />
        </mxCell>
        <mxCell id="sV9AE89kQXJ4sSSlhw6v-7" value="" style="whiteSpace=wrap;html=1;aspect=fixed;" parent="1" vertex="1">
          <mxGeometry x="-12640" y="-17160" width="80" height="80" as="geometry" />
        </mxCell>
        <mxCell id="sV9AE89kQXJ4sSSlhw6v-8" value="" style="whiteSpace=wrap;html=1;aspect=fixed;" parent="1" vertex="1">
          <mxGeometry x="-16770" y="-2740" width="80" height="80" as="geometry" />
        </mxCell>
        <mxCell id="sV9AE89kQXJ4sSSlhw6v-10" value="" style="whiteSpace=wrap;html=1;aspect=fixed;" parent="1" vertex="1">
          <mxGeometry x="-6616" y="-21045" width="3510" height="3510" as="geometry" />
        </mxCell>
        <mxCell id="sV9AE89kQXJ4sSSlhw6v-11" value="&lt;font style=&quot;font-size: 200px;&quot;&gt;Client&lt;/font&gt;" style="text;html=1;align=center;verticalAlign=middle;whiteSpace=wrap;rounded=0;" parent="1" vertex="1">
          <mxGeometry x="-6616" y="-21045" width="600" height="200" as="geometry" />
        </mxCell>
        <mxCell id="sV9AE89kQXJ4sSSlhw6v-13" value="" style="whiteSpace=wrap;html=1;aspect=fixed;" parent="1" vertex="1">
          <mxGeometry x="-16742" y="-11720" width="3510" height="3510" as="geometry" />
        </mxCell>
        <mxCell id="sV9AE89kQXJ4sSSlhw6v-14" value="&lt;font style=&quot;font-size: 200px;&quot;&gt;Service&lt;/font&gt;" style="text;html=1;align=center;verticalAlign=middle;whiteSpace=wrap;rounded=0;" parent="1" vertex="1">
          <mxGeometry x="-16742" y="-11720" width="600" height="200" as="geometry" />
        </mxCell>
        <mxCell id="sV9AE89kQXJ4sSSlhw6v-17" value="ANY CLIENTS&lt;div style=&quot;font-size: 200px;&quot;&gt;&lt;br style=&quot;font-size: 200px;&quot;&gt;&lt;/div&gt;" style="shape=umlActor;verticalLabelPosition=bottom;verticalAlign=top;html=1;outlineConnect=0;fillColor=#FEFFFC;strokeWidth=8;fontSize=200;" parent="1" vertex="1">
          <mxGeometry x="-18140" y="-27670" width="1543" height="3086" as="geometry" />
        </mxCell>
        <mxCell id="sV9AE89kQXJ4sSSlhw6v-19" value="&lt;font style=&quot;font-size: 200px;&quot;&gt;JWT&lt;/font&gt;" style="text;html=1;align=center;verticalAlign=middle;whiteSpace=wrap;rounded=0;movable=0;resizable=0;rotatable=0;deletable=0;editable=0;locked=1;connectable=0;" parent="1" vertex="1">
          <mxGeometry x="3610" y="2420" width="600" height="200" as="geometry" />
        </mxCell>
        <mxCell id="sV9AE89kQXJ4sSSlhw6v-21" value="" style="whiteSpace=wrap;html=1;aspect=fixed;movable=1;resizable=1;rotatable=1;deletable=1;editable=1;locked=0;connectable=1;" parent="1" vertex="1">
          <mxGeometry x="-1856" y="2335" width="3510" height="3510" as="geometry" />
        </mxCell>
        <mxCell id="sV9AE89kQXJ4sSSlhw6v-22" value="&lt;font style=&quot;font-size: 200px;&quot;&gt;Chats&lt;/font&gt;" style="text;html=1;align=center;verticalAlign=middle;whiteSpace=wrap;rounded=0;movable=1;resizable=1;rotatable=1;deletable=1;editable=1;locked=0;connectable=1;" parent="1" vertex="1">
          <mxGeometry x="-1856" y="2335" width="600" height="200" as="geometry" />
        </mxCell>
        <mxCell id="B7xan0yckbOFAlwvjHoT-66" style="edgeStyle=orthogonalEdgeStyle;rounded=0;orthogonalLoop=1;jettySize=auto;html=1;entryX=0.5;entryY=0;entryDx=0;entryDy=0;" edge="1" parent="1" source="B7xan0yckbOFAlwvjHoT-1" target="B7xan0yckbOFAlwvjHoT-65">
          <mxGeometry relative="1" as="geometry" />
        </mxCell>
        <mxCell id="B7xan0yckbOFAlwvjHoT-1" value="&lt;font style=&quot;font-size: 40px;&quot;&gt;MessagesStore&lt;/font&gt;" style="whiteSpace=wrap;html=1;aspect=fixed;" vertex="1" parent="1">
          <mxGeometry x="-1160" y="-20660" width="330" height="330" as="geometry" />
        </mxCell>
        <mxCell id="B7xan0yckbOFAlwvjHoT-2" value="Actor" style="shape=umlActor;verticalLabelPosition=bottom;verticalAlign=top;html=1;outlineConnect=0;" vertex="1" parent="1">
          <mxGeometry x="-1033" y="-20870" width="60" height="90" as="geometry" />
        </mxCell>
        <mxCell id="B7xan0yckbOFAlwvjHoT-6" value="" style="endArrow=block;html=1;rounded=0;strokeWidth=11;exitX=1;exitY=0;exitDx=0;exitDy=0;startArrow=block;" edge="1" parent="1" source="sV9AE89kQXJ4sSSlhw6v-10">
          <mxGeometry relative="1" as="geometry">
            <mxPoint x="-3050" y="-20090" as="sourcePoint" />
            <mxPoint x="3100" y="-21045" as="targetPoint" />
          </mxGeometry>
        </mxCell>
        <mxCell id="B7xan0yckbOFAlwvjHoT-7" value="" style="shape=message;html=1;outlineConnect=0;" vertex="1" parent="B7xan0yckbOFAlwvjHoT-6">
          <mxGeometry width="257.14" height="180" relative="1" as="geometry">
            <mxPoint x="-130" y="-83" as="offset" />
          </mxGeometry>
        </mxCell>
        <mxCell id="B7xan0yckbOFAlwvjHoT-8" value="" style="endArrow=classic;html=1;rounded=0;entryX=0.5;entryY=0;entryDx=0;entryDy=0;" edge="1" parent="1" source="B7xan0yckbOFAlwvjHoT-2" target="B7xan0yckbOFAlwvjHoT-1">
          <mxGeometry relative="1" as="geometry">
            <mxPoint x="-830" y="-20280" as="sourcePoint" />
            <mxPoint x="-730" y="-20280" as="targetPoint" />
          </mxGeometry>
        </mxCell>
        <mxCell id="B7xan0yckbOFAlwvjHoT-9" value="&lt;div&gt;Click on dialog&lt;/div&gt;&lt;div&gt;&lt;br&gt;&lt;/div&gt;" style="edgeLabel;resizable=0;html=1;;align=center;verticalAlign=middle;" connectable="0" vertex="1" parent="B7xan0yckbOFAlwvjHoT-8">
          <mxGeometry relative="1" as="geometry" />
        </mxCell>
        <mxCell id="B7xan0yckbOFAlwvjHoT-11" value="&lt;font style=&quot;font-size: 40px;&quot;&gt;React&lt;/font&gt;" style="whiteSpace=wrap;html=1;aspect=fixed;" vertex="1" parent="1">
          <mxGeometry x="-1700" y="-20625" width="260" height="260" as="geometry" />
        </mxCell>
        <mxCell id="B7xan0yckbOFAlwvjHoT-13" value="&lt;div style=&quot;font-size: 32px;&quot;&gt;&lt;font style=&quot;font-size: 32px;&quot;&gt;Messages&lt;/font&gt;&lt;/div&gt;" style="whiteSpace=wrap;html=1;aspect=fixed;" vertex="1" parent="1">
          <mxGeometry x="-750" y="-20040" width="160" height="160" as="geometry" />
        </mxCell>
        <mxCell id="B7xan0yckbOFAlwvjHoT-14" value="&lt;font style=&quot;font-size: 32px;&quot;&gt;Dialogs&lt;/font&gt;" style="whiteSpace=wrap;html=1;aspect=fixed;" vertex="1" parent="1">
          <mxGeometry x="-750" y="-20313" width="160" height="160" as="geometry" />
        </mxCell>
        <mxCell id="B7xan0yckbOFAlwvjHoT-15" value="" style="endArrow=classic;html=1;rounded=0;entryX=0.5;entryY=0;entryDx=0;entryDy=0;" edge="1" parent="1" target="B7xan0yckbOFAlwvjHoT-14">
          <mxGeometry relative="1" as="geometry">
            <mxPoint x="-830" y="-20485.83" as="sourcePoint" />
            <mxPoint x="-670" y="-20480" as="targetPoint" />
          </mxGeometry>
        </mxCell>
        <mxCell id="B7xan0yckbOFAlwvjHoT-16" value="&lt;font style=&quot;font-size: 20px;&quot;&gt;id&lt;/font&gt;" style="edgeLabel;resizable=0;html=1;;align=center;verticalAlign=middle;" connectable="0" vertex="1" parent="B7xan0yckbOFAlwvjHoT-15">
          <mxGeometry relative="1" as="geometry" />
        </mxCell>
        <mxCell id="B7xan0yckbOFAlwvjHoT-22" value="" style="endArrow=classic;html=1;rounded=0;entryX=0.5;entryY=0;entryDx=0;entryDy=0;exitX=0.5;exitY=1;exitDx=0;exitDy=0;startArrow=classic;startFill=1;" edge="1" parent="1" source="B7xan0yckbOFAlwvjHoT-14" target="B7xan0yckbOFAlwvjHoT-13">
          <mxGeometry relative="1" as="geometry">
            <mxPoint x="-720" y="-20100" as="sourcePoint" />
            <mxPoint x="-620" y="-20100" as="targetPoint" />
          </mxGeometry>
        </mxCell>
        <mxCell id="B7xan0yckbOFAlwvjHoT-23" value="" style="shape=message;html=1;outlineConnect=0;" vertex="1" parent="B7xan0yckbOFAlwvjHoT-22">
          <mxGeometry width="20" height="14" relative="1" as="geometry">
            <mxPoint x="-10" y="-7" as="offset" />
          </mxGeometry>
        </mxCell>
        <mxCell id="B7xan0yckbOFAlwvjHoT-24" value="" style="endArrow=classic;html=1;rounded=0;entryX=1.01;entryY=0.649;entryDx=0;entryDy=0;entryPerimeter=0;exitX=0.25;exitY=0;exitDx=0;exitDy=0;" edge="1" parent="1" source="B7xan0yckbOFAlwvjHoT-14" target="B7xan0yckbOFAlwvjHoT-1">
          <mxGeometry relative="1" as="geometry">
            <mxPoint x="-800" y="-20330" as="sourcePoint" />
            <mxPoint x="-700" y="-20330" as="targetPoint" />
          </mxGeometry>
        </mxCell>
        <mxCell id="B7xan0yckbOFAlwvjHoT-25" value="" style="shape=message;html=1;outlineConnect=0;" vertex="1" parent="B7xan0yckbOFAlwvjHoT-24">
          <mxGeometry width="20" height="14" relative="1" as="geometry">
            <mxPoint x="-10" y="-7" as="offset" />
          </mxGeometry>
        </mxCell>
        <mxCell id="B7xan0yckbOFAlwvjHoT-26" value="" style="endArrow=classic;html=1;rounded=0;entryX=1;entryY=0.5;entryDx=0;entryDy=0;exitX=0;exitY=0.5;exitDx=0;exitDy=0;" edge="1" parent="1" source="B7xan0yckbOFAlwvjHoT-1" target="B7xan0yckbOFAlwvjHoT-11">
          <mxGeometry relative="1" as="geometry">
            <mxPoint x="-990" y="-20330" as="sourcePoint" />
            <mxPoint x="-940" y="-20120" as="targetPoint" />
          </mxGeometry>
        </mxCell>
        <mxCell id="B7xan0yckbOFAlwvjHoT-27" value="" style="shape=message;html=1;outlineConnect=0;" vertex="1" parent="B7xan0yckbOFAlwvjHoT-26">
          <mxGeometry width="20" height="14" relative="1" as="geometry">
            <mxPoint x="-10" y="-7" as="offset" />
          </mxGeometry>
        </mxCell>
        <mxCell id="B7xan0yckbOFAlwvjHoT-28" value="" style="endArrow=classic;html=1;rounded=0;exitX=0;exitY=0.5;exitDx=0;exitDy=0;strokeWidth=8;" edge="1" parent="1" source="B7xan0yckbOFAlwvjHoT-11">
          <mxGeometry relative="1" as="geometry">
            <mxPoint x="-904.84" y="-20230.71" as="sourcePoint" />
            <mxPoint x="-1860" y="-21050" as="targetPoint" />
          </mxGeometry>
        </mxCell>
        <mxCell id="B7xan0yckbOFAlwvjHoT-29" value="" style="shape=message;html=1;outlineConnect=0;" vertex="1" parent="B7xan0yckbOFAlwvjHoT-28">
          <mxGeometry width="71.43" height="50" relative="1" as="geometry">
            <mxPoint x="-35" y="-25" as="offset" />
          </mxGeometry>
        </mxCell>
        <mxCell id="B7xan0yckbOFAlwvjHoT-51" style="edgeStyle=orthogonalEdgeStyle;rounded=0;orthogonalLoop=1;jettySize=auto;html=1;entryX=0.5;entryY=0;entryDx=0;entryDy=0;" edge="1" parent="1" source="B7xan0yckbOFAlwvjHoT-30" target="B7xan0yckbOFAlwvjHoT-49">
          <mxGeometry relative="1" as="geometry" />
        </mxCell>
        <mxCell id="B7xan0yckbOFAlwvjHoT-30" value="&lt;font style=&quot;font-size: 42px;&quot;&gt;Socket&lt;/font&gt;&lt;font style=&quot;font-size: 44px;&quot;&gt;Store&lt;/font&gt;" style="whiteSpace=wrap;html=1;aspect=fixed;" vertex="1" parent="1">
          <mxGeometry x="390.0000000000001" y="-20660" width="330" height="330" as="geometry" />
        </mxCell>
        <mxCell id="B7xan0yckbOFAlwvjHoT-31" value="Actor" style="shape=umlActor;verticalLabelPosition=bottom;verticalAlign=top;html=1;outlineConnect=0;" vertex="1" parent="1">
          <mxGeometry x="517.0000000000001" y="-20870" width="60" height="90" as="geometry" />
        </mxCell>
        <mxCell id="B7xan0yckbOFAlwvjHoT-33" value="" style="endArrow=classic;html=1;rounded=0;entryX=0.5;entryY=0;entryDx=0;entryDy=0;" edge="1" parent="1" source="B7xan0yckbOFAlwvjHoT-31" target="B7xan0yckbOFAlwvjHoT-30">
          <mxGeometry relative="1" as="geometry">
            <mxPoint x="720.0000000000001" y="-20280" as="sourcePoint" />
            <mxPoint x="820.0000000000001" y="-20280" as="targetPoint" />
          </mxGeometry>
        </mxCell>
        <mxCell id="B7xan0yckbOFAlwvjHoT-54" style="edgeStyle=orthogonalEdgeStyle;rounded=0;orthogonalLoop=1;jettySize=auto;html=1;exitX=0.5;exitY=1;exitDx=0;exitDy=0;entryX=0.5;entryY=0;entryDx=0;entryDy=0;" edge="1" parent="1" source="B7xan0yckbOFAlwvjHoT-49" target="B7xan0yckbOFAlwvjHoT-52">
          <mxGeometry relative="1" as="geometry" />
        </mxCell>
        <mxCell id="B7xan0yckbOFAlwvjHoT-49" value="&lt;font style=&quot;font-size: 32px;&quot;&gt;Events&lt;/font&gt;" style="whiteSpace=wrap;html=1;aspect=fixed;" vertex="1" parent="1">
          <mxGeometry x="495" y="-20070" width="120" height="120" as="geometry" />
        </mxCell>
        <mxCell id="B7xan0yckbOFAlwvjHoT-63" style="edgeStyle=orthogonalEdgeStyle;rounded=0;orthogonalLoop=1;jettySize=auto;html=1;entryX=1;entryY=0.5;entryDx=0;entryDy=0;" edge="1" parent="1" source="B7xan0yckbOFAlwvjHoT-52" target="B7xan0yckbOFAlwvjHoT-61">
          <mxGeometry relative="1" as="geometry" />
        </mxCell>
        <mxCell id="B7xan0yckbOFAlwvjHoT-52" value="" style="whiteSpace=wrap;html=1;aspect=fixed;" vertex="1" parent="1">
          <mxGeometry x="415" y="-19690" width="280" height="280" as="geometry" />
        </mxCell>
        <mxCell id="B7xan0yckbOFAlwvjHoT-53" value="&lt;font style=&quot;font-size: 30px;&quot;&gt;Server Response&lt;/font&gt;" style="text;html=1;align=center;verticalAlign=middle;whiteSpace=wrap;rounded=0;" vertex="1" parent="1">
          <mxGeometry x="415" y="-19687" width="260" height="30" as="geometry" />
        </mxCell>
        <mxCell id="B7xan0yckbOFAlwvjHoT-59" style="edgeStyle=orthogonalEdgeStyle;rounded=0;orthogonalLoop=1;jettySize=auto;html=1;strokeWidth=10;" edge="1" parent="1">
          <mxGeometry relative="1" as="geometry">
            <mxPoint x="2291" y="-21040" as="targetPoint" />
            <mxPoint x="2290.5000000000036" y="-20520" as="sourcePoint" />
          </mxGeometry>
        </mxCell>
        <mxCell id="B7xan0yckbOFAlwvjHoT-55" value="" style="whiteSpace=wrap;html=1;aspect=fixed;" vertex="1" parent="1">
          <mxGeometry x="1654" y="-20540" width="1273" height="1273" as="geometry" />
        </mxCell>
        <mxCell id="B7xan0yckbOFAlwvjHoT-57" value="&lt;font style=&quot;font-size: 32px;&quot;&gt;ClientRequest&lt;/font&gt;" style="text;html=1;align=center;verticalAlign=middle;resizable=0;points=[];autosize=1;strokeColor=none;fillColor=none;" vertex="1" parent="1">
          <mxGeometry x="1670" y="-20520" width="220" height="50" as="geometry" />
        </mxCell>
        <mxCell id="B7xan0yckbOFAlwvjHoT-58" style="edgeStyle=orthogonalEdgeStyle;rounded=0;orthogonalLoop=1;jettySize=auto;html=1;entryX=0;entryY=0.415;entryDx=0;entryDy=0;entryPerimeter=0;" edge="1" parent="1" source="B7xan0yckbOFAlwvjHoT-49" target="B7xan0yckbOFAlwvjHoT-55">
          <mxGeometry relative="1" as="geometry" />
        </mxCell>
        <mxCell id="B7xan0yckbOFAlwvjHoT-69" style="edgeStyle=orthogonalEdgeStyle;rounded=0;orthogonalLoop=1;jettySize=auto;html=1;entryX=1;entryY=0.5;entryDx=0;entryDy=0;" edge="1" parent="1" source="B7xan0yckbOFAlwvjHoT-61" target="B7xan0yckbOFAlwvjHoT-65">
          <mxGeometry relative="1" as="geometry" />
        </mxCell>
        <mxCell id="B7xan0yckbOFAlwvjHoT-61" value="" style="whiteSpace=wrap;html=1;aspect=fixed;" vertex="1" parent="1">
          <mxGeometry x="-440" y="-19690" width="280" height="280" as="geometry" />
        </mxCell>
        <mxCell id="B7xan0yckbOFAlwvjHoT-62" value="&lt;font style=&quot;font-size: 32px;&quot;&gt;Messages&lt;/font&gt;" style="text;html=1;align=center;verticalAlign=middle;whiteSpace=wrap;rounded=0;" vertex="1" parent="1">
          <mxGeometry x="-440" y="-19687" width="260" height="30" as="geometry" />
        </mxCell>
        <mxCell id="B7xan0yckbOFAlwvjHoT-65" value="&lt;font style=&quot;font-size: 32px;&quot;&gt;Dialog Method&lt;/font&gt;" style="whiteSpace=wrap;html=1;aspect=fixed;" vertex="1" parent="1">
          <mxGeometry x="-1075" y="-19630" width="160" height="160" as="geometry" />
        </mxCell>
        <mxCell id="B7xan0yckbOFAlwvjHoT-71" value="" style="endArrow=classic;html=1;rounded=0;exitX=1;exitY=0;exitDx=0;exitDy=0;entryX=0;entryY=0.5;entryDx=0;entryDy=0;strokeWidth=2;" edge="1" parent="1" source="B7xan0yckbOFAlwvjHoT-65" target="B7xan0yckbOFAlwvjHoT-14">
          <mxGeometry relative="1" as="geometry">
            <mxPoint x="-900" y="-19810" as="sourcePoint" />
            <mxPoint x="-800" y="-19810" as="targetPoint" />
            <Array as="points">
              <mxPoint x="-910" y="-20233" />
            </Array>
          </mxGeometry>
        </mxCell>
        <mxCell id="B7xan0yckbOFAlwvjHoT-72" value="&lt;font style=&quot;font-size: 14px;&quot;&gt;New dialog&lt;/font&gt;" style="edgeLabel;resizable=0;html=1;;align=center;verticalAlign=middle;" connectable="0" vertex="1" parent="B7xan0yckbOFAlwvjHoT-71">
          <mxGeometry relative="1" as="geometry" />
        </mxCell>
        <mxCell id="B7xan0yckbOFAlwvjHoT-75" value="" style="endArrow=classic;html=1;rounded=0;entryX=0;entryY=0.5;entryDx=0;entryDy=0;" edge="1" parent="1" target="B7xan0yckbOFAlwvjHoT-13">
          <mxGeometry relative="1" as="geometry">
            <mxPoint x="-910" y="-19960" as="sourcePoint" />
            <mxPoint x="-810" y="-19960.29" as="targetPoint" />
          </mxGeometry>
        </mxCell>
        <mxCell id="B7xan0yckbOFAlwvjHoT-76" value="New Messages" style="edgeLabel;resizable=0;html=1;;align=center;verticalAlign=middle;" connectable="0" vertex="1" parent="B7xan0yckbOFAlwvjHoT-75">
          <mxGeometry relative="1" as="geometry" />
        </mxCell>
      </root>
    </mxGraphModel>
  </diagram>
</mxfile>
